<svg class="svg-icon" style="width: 1em; height: 1em;vertical-align: middle;fill: currentColor;overflow: hidden;" viewBox="0 0 1024 1024" version="1.1" xmlns="http://www.w3.org/2000/svg"><path d="M512 983.04 512 983.04C772.148204 983.04 983.04 772.148208 983.04 512 983.04 251.851792 772.148204 40.96 512 40.96 251.851796 40.96 40.96 251.851792 40.96 512 40.96 772.148208 251.851796 983.04 512 983.04L512 983.04ZM512 1024 512 1024C229.230203 1024 0 794.769791 0 512 0 229.230209 229.230203 0 512 0 794.769797 0 1024 229.230209 1024 512 1024 794.769791 794.769797 1024 512 1024L512 1024ZM251.895685 770.353379 554.029179 555.942287 566.020014 572.544999 215.935857 820.984613 213.420954 824.525578 197.152502 812.085 200.877588 806.840105 200.743219 806.654069 201.280512 806.27277 448.019988 458.865 464.28844 471.305578 251.895685 770.353379ZM820.224164 205.12358 570.50665 570.253593 453.790392 453.537346 820.224164 205.12358Z"  /></svg>