<?xml version="1.0" encoding="utf-8"?>
<!-- Svg Vector Icons : http://www.onlinewebfonts.com/icon -->
<!DOCTYPE svg PUBLIC "-//W3C//DTD SVG 1.1//EN" "http://www.w3.org/Graphics/SVG/1.1/DTD/svg11.dtd">
<svg version="1.1" xmlns="http://www.w3.org/2000/svg" xmlns:xlink="http://www.w3.org/1999/xlink" x="0px" y="0px" viewBox="0 0 1000 1000" enable-background="new 0 0 1000 1000" xml:space="preserve">
<metadata> Svg Vector Icons : http://www.onlinewebfonts.com/icon </metadata>
<g><g><g><path d="M975.1,237.6c-15.6-44.6-43.1-84.9-79.4-116.4C859.3,89.7,815.6,68.2,769.2,59c-17.5-3.4-35.4-5.2-53.4-5.2c-52.4,0-103.4,14.8-147.4,42.8c-26.5,16.9-49.8,38-68.9,62.5c-19.2-24.4-42.4-45.6-68.9-62.4c-44-28-94.9-42.8-147.3-42.8c0,0,0,0,0,0c-43.6,0-87.4,10.8-126.6,31.2c-39.2,20.4-73.1,50-98.2,85.7c-25.7,36.6-41.4,77.5-46.6,121.7c-4.5,38.7-1,80.3,10.4,123.5C45,501.8,95.2,579.9,133.3,630.4C216.1,740.1,330,839.7,481.5,934.8l18.1,11.4l18.1-11.4C704,817.8,834,694.2,915.2,557c46.7-78.9,71-149.2,74.4-214.8C991.5,305.6,986.6,270.4,975.1,237.6z M499.6,865.7c-135.3-87.1-237.5-177.7-312-276.3c-34.4-45.6-79.6-115.7-99.5-190.7c-9.3-35-12.1-68-8.6-98.2c3.8-32.8,15.5-63.3,34.6-90.5c18.9-26.8,44.4-49.1,74-64.5c29.5-15.4,62.5-23.5,95.2-23.5c39.4,0,77.7,11.1,110.7,32.2c32.2,20.5,58.1,49.4,74.9,83.6l30.6,62.3l30.5-62.4c16.8-34.3,42.7-63.2,74.9-83.7c33.1-21.1,71.4-32.2,110.8-32.2c13.6,0,27.1,1.3,40.2,3.9c34.8,6.9,67.6,23.1,95,46.9c27.4,23.8,48.1,54.1,59.8,87.5c8.6,24.4,12.2,50.8,10.8,78.6c-2.8,54.4-24,114.5-65,183.6C783.7,645.6,666.8,758,499.6,865.7z"/></g></g><g></g><g></g><g></g><g></g><g></g><g></g><g></g><g></g><g></g><g></g><g></g><g></g><g></g><g></g><g></g></g>
</svg>